<?xml version="1.0" encoding="UTF-8" standalone="no"?>
<!-- Created with Inkscape (http://www.inkscape.org/) -->

<svg
   xmlns:dc="http://purl.org/dc/elements/1.1/"
   xmlns:cc="http://creativecommons.org/ns#"
   xmlns:rdf="http://www.w3.org/1999/02/22-rdf-syntax-ns#"
   xmlns="http://www.w3.org/2000/svg"
   xmlns:sodipodi="http://sodipodi.sourceforge.net/DTD/sodipodi-0.dtd"
   xmlns:inkscape="http://www.inkscape.org/namespaces/inkscape"
   id="svg2"
   version="1.1"
   inkscape:version="0.91 r13725"
   xml:space="preserve"
   width="744.09998"
   height="241.30499"
   viewBox="0 0 744.09998 241.30499"
   sodipodi:docname="Energic-CMJN-horiz.svg"><metadata
     id="metadata8"><rdf:RDF><cc:Work
         rdf:about=""><dc:format>image/svg+xml</dc:format><dc:type
           rdf:resource="http://purl.org/dc/dcmitype/StillImage" /><dc:title></dc:title></cc:Work></rdf:RDF></metadata><defs
     id="defs6"><clipPath
       clipPathUnits="userSpaceOnUse"
       id="clipPath16"><path
         d="m 0,193.044 595.28,0 L 595.28,0 0,0 0,193.044 Z"
         id="path18"
         inkscape:connector-curvature="0" /></clipPath><clipPath
       clipPathUnits="userSpaceOnUse"
       id="clipPath52"><path
         d="m 287.557,102.704 0,-30.196 c 0,-2.434 1.973,-4.409 4.408,-4.409 l 0,0 c 2.437,0 4.41,1.975 4.41,4.409 l 0,0 0,30.196 c 0,8.694 8.013,12.655 15.456,12.655 l 0,0 c 5.594,0 15.063,-2.666 15.063,-12.655 l 0,0 0,-30.196 c 0,-2.434 1.974,-4.409 4.409,-4.409 l 0,0 c 2.434,0 4.409,1.975 4.409,4.409 l 0,0 0,30.196 c 0,6.618 -2.761,12.409 -7.775,16.306 l 0,0 c -4.289,3.332 -10.007,5.166 -16.106,5.166 l 0,0 c -12.062,0 -24.274,-7.375 -24.274,-21.472"
         id="path54"
         inkscape:connector-curvature="0" /></clipPath><linearGradient
       x1="0"
       y1="0"
       x2="1"
       y2="0"
       gradientUnits="userSpaceOnUse"
       gradientTransform="matrix(357.22232,0,0,-357.22232,212.43311,96.137695)"
       spreadMethod="pad"
       id="linearGradient60"><stop
         style="stop-opacity:1;stop-color:#0073ab"
         offset="0"
         id="stop62" /><stop
         style="stop-opacity:1;stop-color:#004c8a"
         offset="1"
         id="stop64" /></linearGradient><clipPath
       clipPathUnits="userSpaceOnUse"
       id="clipPath72"><path
         d="m 417.103,121.59 c -7.612,-3.623 -11.979,-10.508 -11.979,-18.886 l 0,0 0,-30.196 c 0,-2.434 1.973,-4.409 4.409,-4.409 l 0,0 c 2.433,0 4.409,1.975 4.409,4.409 l 0,0 0,30.196 c 0,6.295 3.779,9.414 6.951,10.924 l 0,0 c 6.128,2.918 14.461,2.102 19.377,-1.894 l 0,0 c 1.891,-1.539 4.667,-1.251 6.202,0.639 l 0,0 c 1.535,1.888 1.25,4.665 -0.639,6.201 l 0,0 c -4.512,3.669 -10.683,5.59 -16.876,5.59 l 0,0 c -4.1,0 -8.208,-0.841 -11.854,-2.574"
         id="path74"
         inkscape:connector-curvature="0" /></clipPath><linearGradient
       x1="0"
       y1="0"
       x2="1"
       y2="0"
       gradientUnits="userSpaceOnUse"
       gradientTransform="matrix(357.18851,0,0,-357.18851,212.44629,96.131836)"
       spreadMethod="pad"
       id="linearGradient80"><stop
         style="stop-opacity:1;stop-color:#0073ab"
         offset="0"
         id="stop82" /><stop
         style="stop-opacity:1;stop-color:#004c8a"
         offset="1"
         id="stop84" /></linearGradient><clipPath
       clipPathUnits="userSpaceOnUse"
       id="clipPath92"><path
         d="m 506.806,111.676 0,-39.168 c 0,-2.434 1.977,-4.409 4.41,-4.409 l 0,0 c 2.435,0 4.408,1.975 4.408,4.409 l 0,0 0,39.168 c 0,2.435 -1.973,4.409 -4.408,4.409 l 0,0 c -2.433,0 -4.41,-1.974 -4.41,-4.409"
         id="path94"
         inkscape:connector-curvature="0" /></clipPath><linearGradient
       x1="0"
       y1="0"
       x2="1"
       y2="0"
       gradientUnits="userSpaceOnUse"
       gradientTransform="matrix(357.19656,0,0,-357.19656,212.44189,92.091797)"
       spreadMethod="pad"
       id="linearGradient100"><stop
         style="stop-opacity:1;stop-color:#0073ab"
         offset="0"
         id="stop102" /><stop
         style="stop-opacity:1;stop-color:#004c8a"
         offset="1"
         id="stop104" /></linearGradient><clipPath
       clipPathUnits="userSpaceOnUse"
       id="clipPath112"><path
         d="m 506.804,128.986 0,-2.541 c 0,-2.435 1.974,-4.409 4.41,-4.409 l 0,0 c 2.434,0 4.409,1.974 4.409,4.409 l 0,0 0,2.541 c 0,2.436 -1.975,4.41 -4.409,4.41 l 0,0 c -2.436,0 -4.41,-1.974 -4.41,-4.41"
         id="path114"
         inkscape:connector-curvature="0" /></clipPath><linearGradient
       x1="0"
       y1="0"
       x2="1"
       y2="0"
       gradientUnits="userSpaceOnUse"
       gradientTransform="matrix(357.19647,0,0,-357.19647,212.44189,127.71631)"
       spreadMethod="pad"
       id="linearGradient120"><stop
         style="stop-opacity:1;stop-color:#0073ab"
         offset="0"
         id="stop122" /><stop
         style="stop-opacity:1;stop-color:#004c8a"
         offset="1"
         id="stop124" /></linearGradient><clipPath
       clipPathUnits="userSpaceOnUse"
       id="clipPath132"><path
         d="m 530.339,115.992 c -10.94,-10.936 -10.94,-28.732 0,-39.669 l 0,0 c 5.467,-5.468 12.65,-8.202 19.832,-8.202 l 0,0 c 7.184,0 14.368,2.734 19.833,8.202 l 0,0 c 1.723,1.722 1.725,4.511 0.002,6.234 l 0,0 c -1.722,1.72 -4.512,1.723 -6.233,0.001 l 0,0 c -7.501,-7.502 -19.704,-7.497 -27.2,0 l 0,0 c -7.501,7.499 -7.501,19.701 -0.002,27.2 l 0,0 c 7.5,7.499 19.704,7.496 27.199,-0.003 l 0,0 c 1.723,-1.721 4.514,-1.721 6.236,0 l 0,0 c 1.721,1.723 1.721,4.514 0,6.236 l 0,0 c -5.47,5.468 -12.654,8.202 -19.836,8.203 l 0,0 c -7.183,0 -14.364,-2.734 -19.831,-8.202"
         id="path134"
         inkscape:connector-curvature="0" /></clipPath><linearGradient
       x1="0"
       y1="0"
       x2="1"
       y2="0"
       gradientUnits="userSpaceOnUse"
       gradientTransform="matrix(357.18976,0,0,-357.18976,212.44873,96.157227)"
       spreadMethod="pad"
       id="linearGradient140"><stop
         style="stop-opacity:1;stop-color:#0073ab"
         offset="0"
         id="stop142" /><stop
         style="stop-opacity:1;stop-color:#004c8a"
         offset="1"
         id="stop144" /></linearGradient><clipPath
       clipPathUnits="userSpaceOnUse"
       id="clipPath152"><path
         d="M 455.61,115.992 C 444.674,105.056 444.674,87.26 455.611,76.323 l 0,0 c 5.468,-5.468 12.651,-8.202 19.833,-8.202 l 0,0 c 4.223,0 8.436,0.973 12.309,2.86 l 0,0 0,-12.17 c 0,-5.004 0,-11.856 -20.314,-11.856 l 0,0 c -2.433,0 -4.409,-1.973 -4.409,-4.408 l 0,0 c 0,-2.435 1.976,-4.407 4.409,-4.407 l 0,0 c 26.111,0 29.131,11.797 29.131,20.671 l 0,0 0,52.865 c 0,0.201 -0.033,0.396 -0.059,0.59 l 0,0 c 0.181,1.32 -0.217,2.707 -1.232,3.725 l 0,0 c -5.469,5.468 -12.653,8.202 -19.835,8.203 l 0,0 c -7.184,0 -14.365,-2.734 -19.834,-8.202 m 6.235,-33.434 c -7.501,7.499 -7.501,19.701 -0.002,27.2 l 0,0 c 7.088,7.085 18.365,7.464 25.91,1.163 l 0,0 0,-29.53 c -3.555,-2.967 -7.937,-4.452 -12.319,-4.452 l 0,0 c -4.922,0 -9.842,1.873 -13.589,5.619"
         id="path154"
         inkscape:connector-curvature="0" /></clipPath><linearGradient
       x1="0"
       y1="0"
       x2="1"
       y2="0"
       gradientUnits="userSpaceOnUse"
       gradientTransform="matrix(357.18976,0,0,-357.18976,212.44775,81.166992)"
       spreadMethod="pad"
       id="linearGradient160"><stop
         style="stop-opacity:1;stop-color:#0073ab"
         offset="0"
         id="stop162" /><stop
         style="stop-opacity:1;stop-color:#004c8a"
         offset="1"
         id="stop164" /></linearGradient><clipPath
       clipPathUnits="userSpaceOnUse"
       id="clipPath172"><path
         d="m 342.665,96.156 c 0,-15.433 12.555,-27.987 27.991,-27.987 l 0,0 c 7.71,0 14.891,3.066 20.221,8.637 l 0,0 c 1.67,1.742 1.609,4.506 -0.134,6.177 l 0,0 c -1.742,1.663 -4.505,1.602 -6.174,-0.139 l 0,0 C 380.902,79.014 375.96,76.9 370.656,76.9 l 0,0 c -9.116,0 -16.754,6.373 -18.739,14.891 l 0,0 42.359,0 c 2.412,0 4.366,1.954 4.366,4.365 l 0,0 c 0,15.434 -12.556,27.989 -27.986,27.989 l 0,0 c -15.436,0 -27.991,-12.555 -27.991,-27.989 m 27.991,19.258 c 9.112,0 16.748,-6.372 18.733,-14.89 l 0,0 -37.472,0 c 1.986,8.518 9.623,14.89 18.739,14.89"
         id="path174"
         inkscape:connector-curvature="0" /></clipPath><linearGradient
       x1="0"
       y1="0"
       x2="1"
       y2="0"
       gradientUnits="userSpaceOnUse"
       gradientTransform="matrix(357.19656,0,0,-357.19656,212.44189,96.157227)"
       spreadMethod="pad"
       id="linearGradient180"><stop
         style="stop-opacity:1;stop-color:#0073ab"
         offset="0"
         id="stop182" /><stop
         style="stop-opacity:1;stop-color:#004c8a"
         offset="1"
         id="stop184" /></linearGradient><clipPath
       clipPathUnits="userSpaceOnUse"
       id="clipPath192"><path
         d="m 221.56,133.716 c -16.176,-16.183 -16.176,-42.517 0,-58.704 l 0,0 c 7.829,-7.824 18.253,-12.134 29.355,-12.134 l 0,0 c 11.098,0 21.522,4.31 29.351,12.134 l 0,0 c 0.902,0.904 1.4,2.105 1.4,3.381 l 0,0 c 0,1.277 -0.498,2.477 -1.4,3.378 l 0,0 c -0.902,0.904 -2.103,1.401 -3.381,1.401 l 0,0 c -1.275,0 -2.475,-0.496 -3.378,-1.4 l 0,0 c -6.023,-6.024 -14.046,-9.341 -22.591,-9.343 l 0,0 -0.004,0 c -8.543,0 -16.566,3.319 -22.592,9.342 l 0,0 c -12.454,12.458 -12.455,32.729 -0.004,45.186 l 0,0 c 6.027,6.024 14.052,9.343 22.597,9.343 l 0,0 c 8.544,0 16.569,-3.319 22.594,-9.343 l 0,0 c 0.903,-0.902 2.103,-1.4 3.379,-1.4 l 0,0 c 1.276,0 2.477,0.498 3.38,1.4 l 0,0 c 0.902,0.902 1.4,2.104 1.4,3.381 l 0,0 c 0,1.276 -0.498,2.477 -1.4,3.379 l 0,0 c -7.828,7.826 -18.252,12.135 -29.351,12.135 l 0,0 c -11.102,0 -21.526,-4.309 -29.355,-12.136"
         id="path194"
         inkscape:connector-curvature="0" /></clipPath><linearGradient
       x1="0"
       y1="0"
       x2="1"
       y2="0"
       gradientUnits="userSpaceOnUse"
       gradientTransform="matrix(357.19467,0,0,-357.19467,212.43896,104.36572)"
       spreadMethod="pad"
       id="linearGradient200"><stop
         style="stop-opacity:1;stop-color:#0073ab"
         offset="0"
         id="stop202" /><stop
         style="stop-opacity:1;stop-color:#004c8a"
         offset="1"
         id="stop204" /></linearGradient><clipPath
       clipPathUnits="userSpaceOnUse"
       id="clipPath212"><path
         d="m 245.536,109.144 c -2.634,0 -4.777,-2.144 -4.777,-4.78 l 0,0 c 0,-2.635 2.143,-4.78 4.777,-4.78 l 0,0 30.232,0 c 2.636,0 4.781,2.145 4.781,4.78 l 0,0 c 0,2.636 -2.145,4.78 -4.781,4.78 l 0,0 -30.232,0 z"
         id="path214"
         inkscape:connector-curvature="0" /></clipPath><linearGradient
       x1="0"
       y1="0"
       x2="1"
       y2="0"
       gradientUnits="userSpaceOnUse"
       gradientTransform="matrix(357.19678,0,0,-357.19678,212.43848,104.36377)"
       spreadMethod="pad"
       id="linearGradient220"><stop
         style="stop-opacity:1;stop-color:#0073ab"
         offset="0"
         id="stop222" /><stop
         style="stop-opacity:1;stop-color:#004c8a"
         offset="1"
         id="stop224" /></linearGradient><clipPath
       clipPathUnits="userSpaceOnUse"
       id="clipPath232"><path
         d="M 77.606,127.359 C 60.597,110.343 60.597,82.656 77.609,65.635 l 0,0 c 8.509,-8.507 19.686,-12.759 30.864,-12.759 l 0,0 c 11.175,0 22.352,4.252 30.86,12.759 l 0,0 c 2.676,2.677 2.676,7.016 0,9.692 l 0,0 c -2.678,2.674 -7.015,2.674 -9.692,0 l 0,0 C 117.969,63.654 98.975,63.656 87.299,75.325 l 0,0 c -11.667,11.676 -11.667,30.672 -0.002,42.343 l 0,0 c 11.677,11.673 30.67,11.675 42.344,0 l 0,0 c 2.677,-2.673 7.014,-2.673 9.692,0 l 0,0 c 2.676,2.679 2.676,7.016 0,9.692 l 0,0 c -8.508,8.508 -19.682,12.762 -30.86,12.762 l 0,0 C 97.297,140.121 86.117,135.867 77.606,127.359"
         id="path234"
         inkscape:connector-curvature="0" /></clipPath><linearGradient
       x1="0"
       y1="0"
       x2="1"
       y2="0"
       gradientUnits="userSpaceOnUse"
       gradientTransform="matrix(73.375183,0,0,-73.375168,80.21875,96.499023)"
       spreadMethod="pad"
       id="linearGradient240"><stop
         style="stop-opacity:1;stop-color:#0073ab"
         offset="0"
         id="stop242" /><stop
         style="stop-opacity:1;stop-color:#004c8a"
         offset="1"
         id="stop244" /></linearGradient><clipPath
       clipPathUnits="userSpaceOnUse"
       id="clipPath252"><path
         d="m 103.087,103.351 c -3.788,0 -6.855,-3.068 -6.855,-6.854 l 0,0 c 0,-3.786 3.067,-6.853 6.855,-6.853 l 0,0 43.218,0 c 3.785,0 6.854,3.067 6.854,6.853 l 0,0 c 0,3.786 -3.069,6.854 -6.854,6.854 l 0,0 -43.218,0 z"
         id="path254"
         inkscape:connector-curvature="0" /></clipPath><linearGradient
       x1="0"
       y1="0"
       x2="1"
       y2="0"
       gradientUnits="userSpaceOnUse"
       gradientTransform="matrix(73.375183,0,0,-73.375168,80.219238,96.49707)"
       spreadMethod="pad"
       id="linearGradient260"><stop
         style="stop-opacity:1;stop-color:#0073ab"
         offset="0"
         id="stop262" /><stop
         style="stop-opacity:1;stop-color:#004c8a"
         offset="1"
         id="stop264" /></linearGradient><clipPath
       clipPathUnits="userSpaceOnUse"
       id="clipPath272"><path
         d="m 0,193.044 595.28,0 L 595.28,0 0,0 0,193.044 Z"
         id="path274"
         inkscape:connector-curvature="0" /></clipPath></defs><sodipodi:namedview
     pagecolor="#ffffff"
     bordercolor="#666666"
     borderopacity="1"
     objecttolerance="10"
     gridtolerance="10"
     guidetolerance="10"
     inkscape:pageopacity="0"
     inkscape:pageshadow="2"
     inkscape:window-width="853"
     inkscape:window-height="480"
     id="namedview4"
     showgrid="false"
     inkscape:zoom="0.52277921"
     inkscape:cx="372.04999"
     inkscape:cy="120.6525"
     inkscape:window-x="65"
     inkscape:window-y="24"
     inkscape:window-maximized="0"
     inkscape:current-layer="g10" /><g
     id="g10"
     inkscape:groupmode="layer"
     inkscape:label="Energic-CMJN-horiz"
     transform="matrix(1.25,0,0,-1.25,0,241.305)"><g
       id="g12"><g
         id="g14"
         clip-path="url(#clipPath16)"><g
           id="g20"
           transform="translate(52.5264,89.6436)"><path
             d="m 0,0 -22.594,0 c -3.782,0 -6.85,3.067 -6.85,6.854 0,3.786 3.068,6.853 6.85,6.853 l 22.594,0 c 3.785,0 6.852,-3.067 6.852,-6.853 C 6.852,3.067 3.785,0 0,0"
             style="fill:#f49700;fill-opacity:1;fill-rule:nonzero;stroke:none"
             id="path22"
             inkscape:connector-curvature="0" /></g><g
           id="g24"
           transform="translate(52.938,34.1152)"><path
             d="m 0,0 c -1.754,0 -3.507,0.671 -4.845,2.008 -2.676,2.677 -2.678,7.013 0,9.692 l 15.969,15.974 c 2.678,2.672 7.015,2.675 9.692,0 2.677,-2.678 2.678,-7.014 0,-9.693 L 4.847,2.008 C 3.508,0.671 1.754,0 0,0"
             style="fill:#f49700;fill-opacity:1;fill-rule:nonzero;stroke:none"
             id="path26"
             inkscape:connector-curvature="0" /></g><g
           id="g28"
           transform="translate(108.4634,11.1182)"><path
             d="m 0,0 c -3.786,0 -6.853,3.068 -6.853,6.853 l 0,22.586 c 0,3.786 3.067,6.854 6.853,6.854 3.782,0 6.852,-3.068 6.852,-6.854 l 0,-22.586 C 6.852,3.068 3.782,0 0,0"
             style="fill:#f49700;fill-opacity:1;fill-rule:nonzero;stroke:none"
             id="path30"
             inkscape:connector-curvature="0" /></g><g
           id="g32"
           transform="translate(163.9927,34.1152)"><path
             d="m 0,0 c -1.756,0 -3.51,0.671 -4.848,2.008 l -15.974,15.973 c -2.675,2.676 -2.675,7.015 0,9.693 2.679,2.675 7.014,2.675 9.693,0 L 4.845,11.7 C 7.521,9.023 7.521,4.685 4.845,2.008 3.507,0.671 1.752,0 0,0"
             style="fill:#f49700;fill-opacity:1;fill-rule:nonzero;stroke:none"
             id="path34"
             inkscape:connector-curvature="0" /></g><g
           id="g36"
           transform="translate(148.0171,129.1973)"><path
             d="m 0,0 c -1.753,0 -3.507,0.672 -4.847,2.008 -2.674,2.677 -2.674,7.016 0,9.692 l 15.975,15.972 c 2.678,2.675 7.016,2.675 9.692,0 2.677,-2.676 2.677,-7.016 0,-9.692 L 4.847,2.008 C 3.507,0.672 1.755,0 0,0"
             style="fill:#f49700;fill-opacity:1;fill-rule:nonzero;stroke:none"
             id="path38"
             inkscape:connector-curvature="0" /></g><g
           id="g40"
           transform="translate(108.4634,145.584)"><path
             d="m 0,0 c -3.786,0 -6.853,3.067 -6.853,6.854 l 0,22.587 c 0,3.785 3.067,6.854 6.853,6.854 3.782,0 6.852,-3.069 6.852,-6.854 l 0,-22.587 C 6.852,3.067 3.782,0 0,0"
             style="fill:#f49700;fill-opacity:1;fill-rule:nonzero;stroke:none"
             id="path42"
             inkscape:connector-curvature="0" /></g><g
           id="g44"
           transform="translate(68.9102,129.1973)"><path
             d="M 0,0 C -1.755,0 -3.51,0.672 -4.849,2.008 L -20.817,17.98 c -2.678,2.678 -2.676,7.016 0,9.692 2.675,2.675 7.016,2.675 9.692,0 L 4.844,11.7 C 7.521,9.024 7.521,4.685 4.844,2.008 3.506,0.672 1.753,0 0,0"
             style="fill:#f49700;fill-opacity:1;fill-rule:nonzero;stroke:none"
             id="path46"
             inkscape:connector-curvature="0" /></g></g></g><g
       id="g48"><g
         id="g50"
         clip-path="url(#clipPath52)"><g
           id="g56"><g
             id="g58"><path
               d="m 287.557,102.704 0,-30.196 c 0,-2.434 1.973,-4.409 4.408,-4.409 l 0,0 c 2.437,0 4.41,1.975 4.41,4.409 l 0,0 0,30.196 c 0,8.694 8.013,12.655 15.456,12.655 l 0,0 c 5.594,0 15.063,-2.666 15.063,-12.655 l 0,0 0,-30.196 c 0,-2.434 1.974,-4.409 4.409,-4.409 l 0,0 c 2.434,0 4.409,1.975 4.409,4.409 l 0,0 0,30.196 c 0,6.618 -2.761,12.409 -7.775,16.306 l 0,0 c -4.289,3.332 -10.007,5.166 -16.106,5.166 l 0,0 c -12.062,0 -24.274,-7.375 -24.274,-21.472"
               style="fill:url(#linearGradient60);stroke:none"
               id="path66"
               inkscape:connector-curvature="0" /></g></g></g></g><g
       id="g68"><g
         id="g70"
         clip-path="url(#clipPath72)"><g
           id="g76"><g
             id="g78"><path
               d="m 417.103,121.59 c -7.612,-3.623 -11.979,-10.508 -11.979,-18.886 l 0,0 0,-30.196 c 0,-2.434 1.973,-4.409 4.409,-4.409 l 0,0 c 2.433,0 4.409,1.975 4.409,4.409 l 0,0 0,30.196 c 0,6.295 3.779,9.414 6.951,10.924 l 0,0 c 6.128,2.918 14.461,2.102 19.377,-1.894 l 0,0 c 1.891,-1.539 4.667,-1.251 6.202,0.639 l 0,0 c 1.535,1.888 1.25,4.665 -0.639,6.201 l 0,0 c -4.512,3.669 -10.683,5.59 -16.876,5.59 l 0,0 c -4.1,0 -8.208,-0.841 -11.854,-2.574"
               style="fill:url(#linearGradient80);stroke:none"
               id="path86"
               inkscape:connector-curvature="0" /></g></g></g></g><g
       id="g88"><g
         id="g90"
         clip-path="url(#clipPath92)"><g
           id="g96"><g
             id="g98"><path
               d="m 506.806,111.676 0,-39.168 c 0,-2.434 1.977,-4.409 4.41,-4.409 l 0,0 c 2.435,0 4.408,1.975 4.408,4.409 l 0,0 0,39.168 c 0,2.435 -1.973,4.409 -4.408,4.409 l 0,0 c -2.433,0 -4.41,-1.974 -4.41,-4.409"
               style="fill:url(#linearGradient100);stroke:none"
               id="path106"
               inkscape:connector-curvature="0" /></g></g></g></g><g
       id="g108"><g
         id="g110"
         clip-path="url(#clipPath112)"><g
           id="g116"><g
             id="g118"><path
               d="m 506.804,128.986 0,-2.541 c 0,-2.435 1.974,-4.409 4.41,-4.409 l 0,0 c 2.434,0 4.409,1.974 4.409,4.409 l 0,0 0,2.541 c 0,2.436 -1.975,4.41 -4.409,4.41 l 0,0 c -2.436,0 -4.41,-1.974 -4.41,-4.41"
               style="fill:url(#linearGradient120);stroke:none"
               id="path126"
               inkscape:connector-curvature="0" /></g></g></g></g><g
       id="g128"><g
         id="g130"
         clip-path="url(#clipPath132)"><g
           id="g136"><g
             id="g138"><path
               d="m 530.339,115.992 c -10.94,-10.936 -10.94,-28.732 0,-39.669 l 0,0 c 5.467,-5.468 12.65,-8.202 19.832,-8.202 l 0,0 c 7.184,0 14.368,2.734 19.833,8.202 l 0,0 c 1.723,1.722 1.725,4.511 0.002,6.234 l 0,0 c -1.722,1.72 -4.512,1.723 -6.233,0.001 l 0,0 c -7.501,-7.502 -19.704,-7.497 -27.2,0 l 0,0 c -7.501,7.499 -7.501,19.701 -0.002,27.2 l 0,0 c 7.5,7.499 19.704,7.496 27.199,-0.003 l 0,0 c 1.723,-1.721 4.514,-1.721 6.236,0 l 0,0 c 1.721,1.723 1.721,4.514 0,6.236 l 0,0 c -5.47,5.468 -12.654,8.202 -19.836,8.203 l 0,0 c -7.183,0 -14.364,-2.734 -19.831,-8.202"
               style="fill:url(#linearGradient140);stroke:none"
               id="path146"
               inkscape:connector-curvature="0" /></g></g></g></g><g
       id="g148"><g
         id="g150"
         clip-path="url(#clipPath152)"><g
           id="g156"><g
             id="g158"><path
               d="M 455.61,115.992 C 444.674,105.056 444.674,87.26 455.611,76.323 l 0,0 c 5.468,-5.468 12.651,-8.202 19.833,-8.202 l 0,0 c 4.223,0 8.436,0.973 12.309,2.86 l 0,0 0,-12.17 c 0,-5.004 0,-11.856 -20.314,-11.856 l 0,0 c -2.433,0 -4.409,-1.973 -4.409,-4.408 l 0,0 c 0,-2.435 1.976,-4.407 4.409,-4.407 l 0,0 c 26.111,0 29.131,11.797 29.131,20.671 l 0,0 0,52.865 c 0,0.201 -0.033,0.396 -0.059,0.59 l 0,0 c 0.181,1.32 -0.217,2.707 -1.232,3.725 l 0,0 c -5.469,5.468 -12.653,8.202 -19.835,8.203 l 0,0 c -7.184,0 -14.365,-2.734 -19.834,-8.202 m 6.235,-33.434 c -7.501,7.499 -7.501,19.701 -0.002,27.2 l 0,0 c 7.088,7.085 18.365,7.464 25.91,1.163 l 0,0 0,-29.53 c -3.555,-2.967 -7.937,-4.452 -12.319,-4.452 l 0,0 c -4.922,0 -9.842,1.873 -13.589,5.619"
               style="fill:url(#linearGradient160);stroke:none"
               id="path166"
               inkscape:connector-curvature="0" /></g></g></g></g><g
       id="g168"><g
         id="g170"
         clip-path="url(#clipPath172)"><g
           id="g176"><g
             id="g178"><path
               d="m 342.665,96.156 c 0,-15.433 12.555,-27.987 27.991,-27.987 l 0,0 c 7.71,0 14.891,3.066 20.221,8.637 l 0,0 c 1.67,1.742 1.609,4.506 -0.134,6.177 l 0,0 c -1.742,1.663 -4.505,1.602 -6.174,-0.139 l 0,0 C 380.902,79.014 375.96,76.9 370.656,76.9 l 0,0 c -9.116,0 -16.754,6.373 -18.739,14.891 l 0,0 42.359,0 c 2.412,0 4.366,1.954 4.366,4.365 l 0,0 c 0,15.434 -12.556,27.989 -27.986,27.989 l 0,0 c -15.436,0 -27.991,-12.555 -27.991,-27.989 m 27.991,19.258 c 9.112,0 16.748,-6.372 18.733,-14.89 l 0,0 -37.472,0 c 1.986,8.518 9.623,14.89 18.739,14.89"
               style="fill:url(#linearGradient180);stroke:none"
               id="path186"
               inkscape:connector-curvature="0" /></g></g></g></g><g
       id="g188"><g
         id="g190"
         clip-path="url(#clipPath192)"><g
           id="g196"><g
             id="g198"><path
               d="m 221.56,133.716 c -16.176,-16.183 -16.176,-42.517 0,-58.704 l 0,0 c 7.829,-7.824 18.253,-12.134 29.355,-12.134 l 0,0 c 11.098,0 21.522,4.31 29.351,12.134 l 0,0 c 0.902,0.904 1.4,2.105 1.4,3.381 l 0,0 c 0,1.277 -0.498,2.477 -1.4,3.378 l 0,0 c -0.902,0.904 -2.103,1.401 -3.381,1.401 l 0,0 c -1.275,0 -2.475,-0.496 -3.378,-1.4 l 0,0 c -6.023,-6.024 -14.046,-9.341 -22.591,-9.343 l 0,0 -0.004,0 c -8.543,0 -16.566,3.319 -22.592,9.342 l 0,0 c -12.454,12.458 -12.455,32.729 -0.004,45.186 l 0,0 c 6.027,6.024 14.052,9.343 22.597,9.343 l 0,0 c 8.544,0 16.569,-3.319 22.594,-9.343 l 0,0 c 0.903,-0.902 2.103,-1.4 3.379,-1.4 l 0,0 c 1.276,0 2.477,0.498 3.38,1.4 l 0,0 c 0.902,0.902 1.4,2.104 1.4,3.381 l 0,0 c 0,1.276 -0.498,2.477 -1.4,3.379 l 0,0 c -7.828,7.826 -18.252,12.135 -29.351,12.135 l 0,0 c -11.102,0 -21.526,-4.309 -29.355,-12.136"
               style="fill:url(#linearGradient200);stroke:none"
               id="path206"
               inkscape:connector-curvature="0" /></g></g></g></g><g
       id="g208"><g
         id="g210"
         clip-path="url(#clipPath212)"><g
           id="g216"><g
             id="g218"><path
               d="m 245.536,109.144 c -2.634,0 -4.777,-2.144 -4.777,-4.78 l 0,0 c 0,-2.635 2.143,-4.78 4.777,-4.78 l 0,0 30.232,0 c 2.636,0 4.781,2.145 4.781,4.78 l 0,0 c 0,2.636 -2.145,4.78 -4.781,4.78 l 0,0 -30.232,0 z"
               style="fill:url(#linearGradient220);stroke:none"
               id="path226"
               inkscape:connector-curvature="0" /></g></g></g></g><g
       id="g228"><g
         id="g230"
         clip-path="url(#clipPath232)"><g
           id="g236"><g
             id="g238"><path
               d="M 77.606,127.359 C 60.597,110.343 60.597,82.656 77.609,65.635 l 0,0 c 8.509,-8.507 19.686,-12.759 30.864,-12.759 l 0,0 c 11.175,0 22.352,4.252 30.86,12.759 l 0,0 c 2.676,2.677 2.676,7.016 0,9.692 l 0,0 c -2.678,2.674 -7.015,2.674 -9.692,0 l 0,0 C 117.969,63.654 98.975,63.656 87.299,75.325 l 0,0 c -11.667,11.676 -11.667,30.672 -0.002,42.343 l 0,0 c 11.677,11.673 30.67,11.675 42.344,0 l 0,0 c 2.677,-2.673 7.014,-2.673 9.692,0 l 0,0 c 2.676,2.679 2.676,7.016 0,9.692 l 0,0 c -8.508,8.508 -19.682,12.762 -30.86,12.762 l 0,0 C 97.297,140.121 86.117,135.867 77.606,127.359"
               style="fill:url(#linearGradient240);stroke:none"
               id="path246"
               inkscape:connector-curvature="0" /></g></g></g></g><g
       id="g248"><g
         id="g250"
         clip-path="url(#clipPath252)"><g
           id="g256"><g
             id="g258"><path
               d="m 103.087,103.351 c -3.788,0 -6.855,-3.068 -6.855,-6.854 l 0,0 c 0,-3.786 3.067,-6.853 6.855,-6.853 l 0,0 43.218,0 c 3.785,0 6.854,3.067 6.854,6.853 l 0,0 c 0,3.786 -3.069,6.854 -6.854,6.854 l 0,0 -43.218,0 z"
               style="fill:url(#linearGradient260);stroke:none"
               id="path266"
               inkscape:connector-curvature="0" /></g></g></g></g><g
       id="g268"><g
         id="g270"
         clip-path="url(#clipPath272)"><g
           id="g276"
           transform="translate(218.813,49.7832)"><path
             d="m 0,0 c 1.352,0 3.458,-0.363 3.458,-1.456 0,-0.494 -0.39,-0.936 -0.936,-0.936 -0.182,0 -0.312,0.052 -0.468,0.13 -0.546,0.26 -1.04,0.468 -1.976,0.468 -1.586,0 -2.314,-0.624 -2.314,-1.82 0,-0.806 0.338,-1.222 1.222,-1.664 1.794,-0.884 4.836,-1.118 4.836,-4.498 0,-2.34 -1.482,-3.796 -4.368,-3.796 -1.326,0 -3.822,0.312 -3.822,1.508 0,0.442 0.338,0.936 0.962,0.936 0.156,0 0.182,-0.026 0.26,-0.052 0.728,-0.286 1.56,-0.598 2.6,-0.598 1.43,0 2.392,0.572 2.392,1.924 0,0.936 -0.442,1.326 -0.962,1.612 -1.638,0.884 -5.096,1.066 -5.096,4.498 C -4.212,-1.508 -2.756,0 0,0"
             style="fill:#878686;fill-opacity:1;fill-rule:nonzero;stroke:none"
             id="path278"
             inkscape:connector-curvature="0" /></g><g
           id="g280"
           transform="translate(240.0288,45.3115)"><path
             d="m 0,0 c 0,1.456 -0.78,2.6 -2.366,2.6 -1.118,0 -2.236,-0.598 -2.86,-1.378 0.078,-0.365 0.13,-0.754 0.13,-1.17 l 0,-8.139 c 0,-0.546 -0.338,-0.987 -1.014,-0.987 -0.676,0 -1.014,0.441 -1.014,0.987 l 0,7.541 c 0,1.846 -0.312,3.146 -2.158,3.146 -1.144,0 -2.288,-0.495 -3.016,-1.04 0.051,-0.312 0.078,-0.573 0.078,-0.806 l 0,-8.841 c 0,-0.546 -0.338,-0.987 -1.014,-0.987 -0.677,0 -1.015,0.441 -1.015,0.987 l 0,8.841 c 0,1.43 -0.233,1.43 -0.467,1.82 -0.053,0.104 -0.182,0.26 -0.182,0.52 0,0.52 0.416,0.91 0.961,0.91 0.442,0 0.781,-0.286 1.041,-0.702 1.144,0.728 2.444,1.17 3.796,1.17 1.43,0 2.366,-0.468 3.016,-1.326 1.092,0.832 2.314,1.326 3.77,1.326 2.808,0 4.342,-1.794 4.342,-4.42 l 0,-8.139 C 2.028,-8.633 1.69,-9.074 1.014,-9.074 0.338,-9.074 0,-8.633 0,-8.087 L 0,0 Z"
             style="fill:#878686;fill-opacity:1;fill-rule:nonzero;stroke:none"
             id="path282"
             inkscape:connector-curvature="0" /></g><g
           id="g284"
           transform="translate(247.1787,40.2148)"><path
             d="m 0,0 0,-0.104 c 0,-1.222 0.546,-2.08 2.288,-2.08 1.118,0 2.002,0.364 2.912,1.144 l 0,2.809 C 4.342,2.028 3.328,2.158 2.548,2.158 0.416,2.158 0,1.17 0,0 M 5.2,4.992 C 5.2,6.891 4.29,7.774 2.418,7.774 1.508,7.774 1.014,7.541 0.442,7.229 0.364,7.202 0.052,7.021 -0.234,7.021 c -0.495,0 -0.703,0.467 -0.728,0.858 -0.104,1.195 1.846,1.689 3.64,1.689 3.25,0 4.55,-1.82 4.55,-5.252 l 0,-5.72 c 0,-0.52 0.156,-0.78 0.468,-0.78 0.078,0 0.104,0.026 0.208,0.026 0.494,0 0.754,-0.442 0.754,-0.884 0,-0.649 -0.598,-0.884 -1.17,-0.884 -0.858,0 -1.56,0.494 -1.95,1.3 -0.988,-0.91 -2.158,-1.378 -3.562,-1.378 -2.678,0 -3.978,1.586 -3.978,3.926 l 0,0.104 c 0,2.548 1.508,3.848 4.576,3.848 0.936,0 1.82,-0.13 2.626,-0.363 l 0,1.481 z"
             style="fill:#878686;fill-opacity:1;fill-rule:nonzero;stroke:none"
             id="path286"
             inkscape:connector-curvature="0" /></g><g
           id="g288"
           transform="translate(260.5684,37.2246)"><path
             d="m 0,0 c 0,-0.571 -0.442,-1.014 -1.014,-1.014 -0.572,0 -1.014,0.443 -1.014,1.014 l 0,8.789 c 0,0.857 -0.104,1.352 -0.416,1.819 -0.104,0.157 -0.182,0.287 -0.182,0.521 0,0.546 0.442,0.91 0.936,0.91 0.416,0 0.78,-0.286 1.04,-0.702 1.118,0.702 2.574,1.118 3.562,1.118 1.04,0 1.352,-0.442 1.352,-0.988 C 4.264,10.816 3.796,10.4 3.25,10.427 2.184,10.453 1.248,10.453 -0.052,9.49 -0.026,9.23 0,8.997 0,8.789 L 0,0 Z"
             style="fill:#878686;fill-opacity:1;fill-rule:nonzero;stroke:none"
             id="path290"
             inkscape:connector-curvature="0" /></g><g
           id="g292"
           transform="translate(267.1982,52.5654)"><path
             d="M 0,0 C 0,0.546 0.364,0.988 1.014,0.988 1.664,0.988 2.028,0.546 2.028,0 l 0,-3.588 2.704,0 c 0.52,0 0.936,-0.416 0.936,-0.962 0,-0.546 -0.416,-0.962 -0.936,-0.962 l -2.704,0 0,-5.175 c 0,-2.677 0.26,-3.666 2.132,-3.666 0.156,0 0.339,0.027 0.494,0.027 0.598,0 1.352,-0.105 1.352,-0.937 0,-0.883 -0.754,-0.988 -1.482,-0.988 -3.64,0 -4.524,1.795 -4.524,5.383 L 0,0 Z"
             style="fill:#878686;fill-opacity:1;fill-rule:nonzero;stroke:none"
             id="path294"
             inkscape:connector-curvature="0" /></g><g
           id="g296"
           transform="translate(287.2959,47.9375)"><path
             d="m 0,0 c -1.689,0 -2.678,-0.91 -2.678,-2.366 l 0,-1.976 c 0.962,-0.131 2.21,-0.182 2.731,-0.182 1.975,0 2.313,1.066 2.313,2.131 C 2.366,-0.702 1.508,0 0,0 m 2.86,-9.204 c 0.053,0.025 0.183,0.077 0.366,0.077 0.519,0 0.91,-0.441 0.91,-0.909 0,-1.275 -2.81,-1.691 -4.214,-1.691 -2.938,0 -4.628,1.873 -4.628,4.317 l 0,4.862 c 0,2.496 1.664,4.394 4.759,4.394 2.885,0 4.315,-1.664 4.315,-4.239 0,-2.391 -1.299,-3.847 -4.393,-3.847 -0.781,0 -1.743,0.078 -2.653,0.234 l 0,-1.534 c 0,-1.456 0.962,-2.393 2.834,-2.393 1.092,0 1.794,0.313 2.704,0.729"
             style="fill:#878686;fill-opacity:1;fill-rule:nonzero;stroke:none"
             id="path298"
             inkscape:connector-curvature="0" /></g><g
           id="g300"
           transform="translate(296.7637,37.2246)"><path
             d="m 0,0 c 0,-0.546 -0.34,-0.987 -1.016,-0.987 -0.676,0 -1.014,0.441 -1.014,0.987 l 0,8.841 c 0,1.43 -0.235,1.43 -0.467,1.82 -0.053,0.104 -0.184,0.26 -0.184,0.52 0,0.52 0.416,0.91 0.964,0.91 0.468,0 0.806,-0.312 1.092,-0.754 1.145,0.806 2.471,1.17 3.72,1.17 2.756,0 4.133,-1.976 4.133,-4.914 L 7.228,0 C 7.228,-0.546 6.864,-0.987 6.214,-0.987 5.563,-0.987 5.2,-0.546 5.2,0 l 0,7.593 c 0,1.975 -0.832,3.094 -2.392,3.094 -1.015,0 -2.003,-0.416 -2.886,-1.092 C -0.027,9.309 0,9.049 0,8.841 L 0,0 Z"
             style="fill:#878686;fill-opacity:1;fill-rule:nonzero;stroke:none"
             id="path302"
             inkscape:connector-curvature="0" /></g><g
           id="g304"
           transform="translate(311.8428,47.9375)"><path
             d="m 0,0 c -1.689,0 -2.678,-0.91 -2.678,-2.366 l 0,-1.976 c 0.963,-0.131 2.211,-0.182 2.731,-0.182 1.976,0 2.314,1.066 2.314,2.131 C 2.367,-0.702 1.508,0 0,0 m 2.861,-9.204 c 0.051,0.025 0.182,0.077 0.364,0.077 0.519,0 0.91,-0.441 0.91,-0.909 0,-1.275 -2.809,-1.691 -4.213,-1.691 -2.938,0 -4.627,1.873 -4.627,4.317 l 0,4.862 c 0,2.496 1.664,4.394 4.758,4.394 2.886,0 4.316,-1.664 4.316,-4.239 0,-2.391 -1.301,-3.847 -4.394,-3.847 -0.78,0 -1.743,0.078 -2.653,0.234 l 0,-1.534 c 0,-1.456 0.963,-2.393 2.834,-2.393 1.092,0 1.795,0.313 2.705,0.729"
             style="fill:#878686;fill-opacity:1;fill-rule:nonzero;stroke:none"
             id="path306"
             inkscape:connector-curvature="0" /></g><g
           id="g308"
           transform="translate(321.3076,37.2246)"><path
             d="m 0,0 c 0,-0.571 -0.443,-1.014 -1.014,-1.014 -0.572,0 -1.015,0.443 -1.015,1.014 l 0,8.789 c 0,0.857 -0.104,1.352 -0.416,1.819 -0.104,0.157 -0.182,0.287 -0.182,0.521 0,0.546 0.443,0.91 0.936,0.91 0.416,0 0.781,-0.286 1.041,-0.702 1.117,0.702 2.574,1.118 3.562,1.118 1.039,0 1.352,-0.442 1.352,-0.988 C 4.264,10.816 3.795,10.4 3.25,10.427 2.184,10.453 1.248,10.453 -0.053,9.49 -0.027,9.23 0,8.997 0,8.789 L 0,0 Z"
             style="fill:#878686;fill-opacity:1;fill-rule:nonzero;stroke:none"
             id="path310"
             inkscape:connector-curvature="0" /></g><g
           id="g312"
           transform="translate(334.6455,47.1836)"><path
             d="m 0,0 c -0.807,0.494 -1.664,0.779 -2.627,0.779 -1.924,0 -2.885,-1.065 -2.885,-2.989 0,-1.769 0.832,-2.938 2.782,-2.938 1.845,0 2.677,1.04 2.677,2.755 l 0,1.639 c 0,0.26 0.028,0.52 0.053,0.754 m -4.811,-10.765 c -0.623,-0.546 -0.882,-1.196 -0.882,-2.028 0,-1.56 1.013,-2.418 3.015,-2.418 1.871,0 3.25,0.754 3.25,2.315 0,1.377 -1.041,2.001 -3.121,2.001 l -1.092,0 c -0.441,0 -0.832,0.052 -1.17,0.13 M 0.52,1.716 C 1.092,2.782 2.027,3.224 2.6,3.224 3.146,3.224 3.563,2.834 3.563,2.313 3.563,2.054 3.459,1.872 3.381,1.794 2.393,0.832 1.977,0.546 1.977,-0.729 l 0,-1.611 c 0,-2.652 -1.586,-4.681 -4.707,-4.681 -0.78,0 -1.456,0.105 -2.055,0.338 -0.233,-0.442 -0.311,-0.883 -0.311,-1.196 0,-0.91 0.832,-1.143 1.405,-1.143 l 1.091,0 c 2.963,0 5.2,-1.222 5.2,-3.823 0,-2.626 -2.262,-4.238 -5.33,-4.238 -2.938,0 -4.993,1.482 -4.993,4.004 0,1.274 0.494,2.263 1.379,3.12 -0.597,0.599 -0.781,1.404 -0.781,2.002 0,0.625 0.209,1.431 0.988,2.133 -0.91,0.857 -1.404,2.132 -1.404,3.666 0,2.704 1.535,4.758 4.654,4.758 1.198,0 2.418,-0.312 3.407,-0.884"
             style="fill:#878686;fill-opacity:1;fill-rule:nonzero;stroke:none"
             id="path314"
             inkscape:connector-curvature="0" /></g><g
           id="g316"
           transform="translate(346.5264,38.0566)"><path
             d="m 0,0 c -1.248,-4.056 -2.236,-6.838 -5.615,-6.916 -0.598,0 -1.041,0.416 -1.041,0.988 0,0.468 0.365,0.936 0.963,0.962 1.638,0.078 2.365,0.962 3.146,3.38 l -4.135,11.935 c -0.052,0.078 -0.052,0.259 -0.052,0.364 0,0.546 0.443,0.935 1.015,0.935 0.389,0 0.754,-0.233 0.908,-0.675 l 3.252,-9.855 2.834,9.855 c 0.155,0.442 0.545,0.675 0.936,0.675 0.519,0 1.014,-0.416 1.014,-1.013 0,-0.104 -0.026,-0.208 -0.053,-0.313 L 0,0 Z"
             style="fill:#878686;fill-opacity:1;fill-rule:nonzero;stroke:none"
             id="path318"
             inkscape:connector-curvature="0" /></g><g
           id="g320"
           transform="translate(359.0576,44.9209)"><path
             d="M 0,0 C 0,2.679 1.404,4.784 4.654,4.784 5.877,4.784 8.27,4.421 8.27,3.198 8.27,2.73 7.879,2.314 7.385,2.314 7.256,2.314 7.125,2.341 6.969,2.393 6.346,2.704 5.773,2.99 4.863,2.99 2.834,2.99 2.029,1.898 2.029,0 l 0,-3.926 c 0,-1.898 0.805,-2.99 2.834,-2.99 0.91,0 1.483,0.286 2.106,0.599 0.156,0.051 0.287,0.077 0.416,0.077 0.494,0 0.885,-0.416 0.885,-0.884 C 8.27,-8.346 5.877,-8.71 4.654,-8.71 1.404,-8.71 0,-6.604 0,-3.926 L 0,0 Z"
             style="fill:#878686;fill-opacity:1;fill-rule:nonzero;stroke:none"
             id="path322"
             inkscape:connector-curvature="0" /></g><g
           id="g324"
           transform="translate(370.8369,36.2109)"><path
             d="m 0,0 c -0.572,0 -1.016,0.442 -1.016,1.014 l 0,17.187 c 0,0.52 0.416,1.014 0.989,1.014 0.572,0 1.015,-0.443 1.015,-1.014 l 0,-5.721 c 0.883,0.676 2.002,1.092 3.25,1.092 2.782,0 4.055,-1.794 4.055,-4.316 l 0,-8.242 C 8.293,0.442 7.826,0 7.279,0 6.707,0 6.266,0.442 6.266,1.014 l 0,8.216 c 0,1.586 -0.651,2.445 -2.262,2.445 -1.066,0 -2.262,-0.469 -3.016,-1.483 l 0,-9.178 C 0.988,0.442 0.572,0 0,0"
             style="fill:#878686;fill-opacity:1;fill-rule:nonzero;stroke:none"
             id="path326"
             inkscape:connector-curvature="0" /></g><g
           id="g328"
           transform="translate(384.251,40.2148)"><path
             d="m 0,0 0,-0.104 c 0,-1.222 0.547,-2.08 2.289,-2.08 1.117,0 2.002,0.364 2.912,1.144 l 0,2.809 C 4.344,2.028 3.328,2.158 2.549,2.158 0.416,2.158 0,1.17 0,0 M 5.201,4.992 C 5.201,6.891 4.291,7.774 2.42,7.774 1.51,7.774 1.016,7.541 0.443,7.229 0.365,7.202 0.053,7.021 -0.232,7.021 c -0.495,0 -0.704,0.467 -0.729,0.858 -0.103,1.195 1.846,1.689 3.641,1.689 3.25,0 4.549,-1.82 4.549,-5.252 l 0,-5.72 c 0,-0.52 0.156,-0.78 0.468,-0.78 0.078,0 0.104,0.026 0.207,0.026 0.494,0 0.754,-0.442 0.754,-0.884 0,-0.649 -0.597,-0.884 -1.17,-0.884 -0.857,0 -1.558,0.494 -1.949,1.3 -0.988,-0.91 -2.158,-1.378 -3.562,-1.378 -2.678,0 -3.979,1.586 -3.979,3.926 l 0,0.104 c 0,2.548 1.51,3.848 4.576,3.848 0.938,0 1.821,-0.13 2.627,-0.363 l 0,1.481 z"
             style="fill:#878686;fill-opacity:1;fill-rule:nonzero;stroke:none"
             id="path330"
             inkscape:connector-curvature="0" /></g><g
           id="g332"
           transform="translate(395.5361,54.2559)"><path
             d="M 0,0 C 0,0.546 0.441,1.014 1.014,1.014 1.586,1.014 2.027,0.572 2.027,0 l 0,-15.393 c 0,-0.572 0.053,-0.91 0.366,-1.222 0.078,-0.104 0.181,-0.285 0.181,-0.494 0,-0.52 -0.416,-0.936 -0.935,-0.936 -0.651,0 -1.639,0.313 -1.639,2.652 L 0,0 Z"
             style="fill:#878686;fill-opacity:1;fill-rule:nonzero;stroke:none"
             id="path334"
             inkscape:connector-curvature="0" /></g><g
           id="g336"
           transform="translate(401.4639,54.2559)"><path
             d="M 0,0 C 0,0.546 0.441,1.014 1.014,1.014 1.586,1.014 2.027,0.572 2.027,0 l 0,-15.393 c 0,-0.572 0.053,-0.91 0.366,-1.222 0.078,-0.104 0.181,-0.285 0.181,-0.494 0,-0.52 -0.416,-0.936 -0.935,-0.936 -0.651,0 -1.639,0.313 -1.639,2.652 L 0,0 Z"
             style="fill:#878686;fill-opacity:1;fill-rule:nonzero;stroke:none"
             id="path338"
             inkscape:connector-curvature="0" /></g><g
           id="g340"
           transform="translate(411.3428,47.9375)"><path
             d="m 0,0 c -1.689,0 -2.678,-0.91 -2.678,-2.366 l 0,-1.976 c 0.963,-0.131 2.211,-0.182 2.731,-0.182 1.976,0 2.314,1.066 2.314,2.131 C 2.367,-0.702 1.51,0 0,0 m 2.861,-9.204 c 0.051,0.025 0.182,0.077 0.364,0.077 0.519,0 0.91,-0.441 0.91,-0.909 0,-1.275 -2.809,-1.691 -4.213,-1.691 -2.938,0 -4.627,1.873 -4.627,4.317 l 0,4.862 c 0,2.496 1.664,4.394 4.758,4.394 2.886,0 4.316,-1.664 4.316,-4.239 0,-2.391 -1.301,-3.847 -4.394,-3.847 -0.78,0 -1.743,0.078 -2.653,0.234 l 0,-1.534 c 0,-1.456 0.963,-2.393 2.834,-2.393 1.092,0 1.795,0.313 2.705,0.729"
             style="fill:#878686;fill-opacity:1;fill-rule:nonzero;stroke:none"
             id="path342"
             inkscape:connector-curvature="0" /></g><g
           id="g344"
           transform="translate(420.8076,37.2246)"><path
             d="m 0,0 c 0,-0.546 -0.338,-0.987 -1.014,-0.987 -0.677,0 -1.015,0.441 -1.015,0.987 l 0,8.841 c 0,1.43 -0.233,1.43 -0.467,1.82 -0.053,0.104 -0.182,0.26 -0.182,0.52 0,0.52 0.416,0.91 0.961,0.91 0.469,0 0.807,-0.312 1.092,-0.754 1.145,0.806 2.471,1.17 3.719,1.17 2.756,0 4.135,-1.976 4.135,-4.914 L 7.229,0 c 0,-0.546 -0.366,-0.987 -1.016,-0.987 -0.649,0 -1.014,0.441 -1.014,0.987 l 0,7.593 c 0,1.975 -0.832,3.094 -2.392,3.094 -1.014,0 -2.002,-0.416 -2.885,-1.092 C -0.027,9.309 0,9.049 0,8.841 L 0,0 Z"
             style="fill:#878686;fill-opacity:1;fill-rule:nonzero;stroke:none"
             id="path346"
             inkscape:connector-curvature="0" /></g><g
           id="g348"
           transform="translate(438.3584,47.1836)"><path
             d="m 0,0 c -0.807,0.494 -1.664,0.779 -2.627,0.779 -1.924,0 -2.887,-1.065 -2.887,-2.989 0,-1.769 0.832,-2.938 2.784,-2.938 1.845,0 2.677,1.04 2.677,2.755 l 0,1.639 c 0,0.26 0.026,0.52 0.053,0.754 m -4.811,-10.765 c -0.625,-0.546 -0.884,-1.196 -0.884,-2.028 0,-1.56 1.013,-2.418 3.015,-2.418 1.873,0 3.252,0.754 3.252,2.315 0,1.377 -1.041,2.001 -3.121,2.001 l -1.092,0 c -0.441,0 -0.832,0.052 -1.17,0.13 M 0.52,1.716 C 1.092,2.782 2.027,3.224 2.6,3.224 3.145,3.224 3.561,2.834 3.561,2.313 3.561,2.054 3.457,1.872 3.379,1.794 2.391,0.832 1.975,0.546 1.975,-0.729 l 0,-1.611 c 0,-2.652 -1.586,-4.681 -4.705,-4.681 -0.782,0 -1.458,0.105 -2.055,0.338 -0.235,-0.442 -0.313,-0.883 -0.313,-1.196 0,-0.91 0.832,-1.143 1.405,-1.143 l 1.091,0 c 2.965,0 5.202,-1.222 5.202,-3.823 0,-2.626 -2.262,-4.238 -5.33,-4.238 -2.938,0 -4.993,1.482 -4.993,4.004 0,1.274 0.494,2.263 1.377,3.12 -0.597,0.599 -0.779,1.404 -0.779,2.002 0,0.625 0.209,1.431 0.988,2.133 -0.91,0.857 -1.404,2.132 -1.404,3.666 0,2.704 1.533,4.758 4.654,4.758 1.196,0 2.418,-0.312 3.407,-0.884"
             style="fill:#878686;fill-opacity:1;fill-rule:nonzero;stroke:none"
             id="path350"
             inkscape:connector-curvature="0" /></g><g
           id="g352"
           transform="translate(447.874,47.9375)"><path
             d="m 0,0 c -1.689,0 -2.678,-0.91 -2.678,-2.366 l 0,-1.976 c 0.961,-0.131 2.209,-0.182 2.731,-0.182 1.974,0 2.312,1.066 2.312,2.131 C 2.365,-0.702 1.508,0 0,0 m 2.859,-9.204 c 0.053,0.025 0.182,0.077 0.366,0.077 0.519,0 0.91,-0.441 0.91,-0.909 0,-1.275 -2.809,-1.691 -4.213,-1.691 -2.938,0 -4.629,1.873 -4.629,4.317 l 0,4.862 c 0,2.496 1.664,4.394 4.76,4.394 2.885,0 4.314,-1.664 4.314,-4.239 0,-2.391 -1.299,-3.847 -4.392,-3.847 -0.782,0 -1.743,0.078 -2.653,0.234 l 0,-1.534 c 0,-1.456 0.961,-2.393 2.834,-2.393 1.092,0 1.793,0.313 2.703,0.729"
             style="fill:#878686;fill-opacity:1;fill-rule:nonzero;stroke:none"
             id="path354"
             inkscape:connector-curvature="0" /></g></g></g></g></svg>
